<!DOCTYPE svg PUBLIC "-//W3C//DTD SVG 1.1//EN" "http://www.w3.org/Graphics/SVG/1.1/DTD/svg11.dtd">

<!-- Uploaded to: SVG Repo, www.svgrepo.com, Transformed by: SVG Repo Mixer Tools -->
<svg fill="#c51616" height="64px" width="64px" version="1.1" id="Capa_1" xmlns="http://www.w3.org/2000/svg" xmlns:xlink="http://www.w3.org/1999/xlink" viewBox="-14.79 -14.79 63.98 63.98" xml:space="preserve" transform="rotate(0)" stroke="#ff8a8a" stroke-width="0.0003439800000000001">

<g id="SVGRepo_bgCarrier" stroke-width="0"/>

<g id="SVGRepo_tracerCarrier" stroke-linecap="round" stroke-linejoin="round" stroke="#CCCCCC" stroke-width="4.746924"/>

<g id="SVGRepo_iconCarrier"> <g> <g id="c28_geolocalization"> <path d="M17.202,0C10.749,0,5.515,5.197,5.515,11.607c0,3.281,3.218,9.156,3.218,9.156l8.039,13.635l8.386-13.477 c0,0,3.726-5.605,3.726-9.314C28.883,5.197,23.653,0,17.202,0z M17.147,18.002c-3.695,0-6.688-2.994-6.688-6.693 c0-3.693,2.993-6.686,6.688-6.686c3.693,0,6.69,2.992,6.69,6.686C23.837,15.008,20.84,18.002,17.147,18.002z"/> <polygon points="18.539,7.233 15.898,7.233 15.898,10.242 12.823,10.242 12.823,12.887 15.898,12.887 15.898,15.985 18.539,15.985 18.539,12.887 21.576,12.887 21.576,10.242 18.539,10.242 "/> </g> <g id="Capa_1_146_"> </g> </g> </g>

</svg>