<?xml version="1.0" encoding="utf-8"?>
<!-- Uploaded to: SVG Repo, www.svgrepo.com, Generator: SVG Repo Mixer Tools -->
<!-- <svg width="800px" height="800px" viewBox="0 0 1024 1024" class="icon"  version="1.1" xmlns="http://www.w3.org/2000/svg"><path d="M320 213.333333m-128 0a128 128 0 1 0 256 0 128 128 0 1 0-256 0Z" fill="#FFECB3" /><path d="M480 181.333333m-117.333333 0a117.333333 117.333333 0 1 0 234.666666 0 117.333333 117.333333 0 1 0-234.666666 0Z" fill="#FFECB3" /><path d="M629.333333 202.666667m-74.666666 0a74.666667 74.666667 0 1 0 149.333333 0 74.666667 74.666667 0 1 0-149.333333 0Z" fill="#FFECB3" /><path d="M565.333333 288m-74.666666 0a74.666667 74.666667 0 1 0 149.333333 0 74.666667 74.666667 0 1 0-149.333333 0Z" fill="#FFECB3" /><path d="M181.333333 224m-53.333333 0a53.333333 53.333333 0 1 0 106.666667 0 53.333333 53.333333 0 1 0-106.666667 0Z" fill="#FFECB3" /><path d="M693.333333 224m-53.333333 0a53.333333 53.333333 0 1 0 106.666667 0 53.333333 53.333333 0 1 0-106.666667 0Z" fill="#FFECB3" /><path d="M693.546667 832a117.482667 117.482667 0 0 1-117.333334-117.333333v-234.666667c0-6.165333-0.085333-11.050667-0.149333-14.869333-0.213333-13.504-0.405333-25.152 9.941333-35.669334l9.386667-9.536 14.122667-0.298666c8.832 0 15.125333 3.413333 18.517333 5.248l0.426667 0.234666C658.389333 407.338667 739.712 362.666667 800.213333 362.666667c96 0 96 73.429333 96 117.312-1.173333 21.376-11.157333 194.368-22.165333 241.877333-15.936 68.949333-59.498667 110.122667-116.501333 110.122667l-64 0.021333z m-53.333334-341.333333v224c0 29.397333 23.914667 53.333333 53.333334 53.333333l63.978666-0.021333c34.965333 0 48.938667-37.930667 54.186667-60.544 8.256-35.733333 17.621333-177.6 20.544-229.269334C832.213333 426.666667 829.781333 426.666667 800.213333 426.666667c-44.693333 0-123.989333 43.733333-148.245333 59.072l-7.850667 4.928h-3.904zM170.666667 853.333333v42.666667a42.666667 42.666667 0 0 0 42.666666 42.666667h448a42.666667 42.666667 0 0 0 42.666667-42.666667v-42.666667H170.666667z" fill="#BBDEFB" /><path d="M170.666667 256h533.333333v597.333333H170.666667z" fill="#FFB300" /><path d="M170.666667 256h533.333333v170.666667H170.666667z" fill="#FFD54F" /><path d="M522.666667 586.666667m-32 0a32 32 0 1 0 64 0 32 32 0 1 0-64 0Z" fill="#FFECB3" /><path d="M565.333333 714.666667m-32 0a32 32 0 1 0 64 0 32 32 0 1 0-64 0Z" fill="#FFE082" /><path d="M618.666667 533.333333m-21.333334 0a21.333333 21.333333 0 1 0 42.666667 0 21.333333 21.333333 0 1 0-42.666667 0Z" fill="#FFF8E1" /><path d="M307.114667 416.896c11.861333-61.76 11.861333-128.96-44.010667-160.896C298.666667 213.333333 405.333333 213.333333 441.344 256c-62.037333 35.456-55.253333 114.389333-39.744 181.056 12.458667 34.752 20.266667 66.048 23.338667 85.952l0.106666 0.725333c0.874667 5.781333 1.450667 10.944 1.450667 14.442667a74.24 74.24 0 0 1-148.48 0c0-3.2 0.469333-7.701333 1.194667-12.778667 2.986667-24.064 13.546667-60.288 27.904-108.501333z" fill="#FFFDF0" /><path d="M467.178667 256a106.666667 106.666667 0 0 0-209.024 0h209.024z" fill="#FFFDF0" /><path d="M553.578667 256a53.333333 53.333333 0 1 0-104.512 0h104.512z" fill="#FFFDF0" /></svg> -->
<svg height="800px" width="800px" version="1.1" id="Layer_1" xmlns="http://www.w3.org/2000/svg" xmlns:xlink="http://www.w3.org/1999/xlink" viewBox="0 0 512.00 512.00" xml:space="preserve" fill="#000000" stroke="#000000" stroke-width="0.00512"><g id="SVGRepo_bgCarrier" stroke-width="0"></g><g id="SVGRepo_tracerCarrier" stroke-linecap="round" stroke-linejoin="round" stroke="#CCCCCC" stroke-width="1.024"></g><g id="SVGRepo_iconCarrier"> <path style="fill:#1E0478;" d="M511.175,305.976v170.725c0,19.375-15.759,35.134-35.134,35.134 c-19.375,0-35.134-15.759-35.134-35.134V317.684c-13.387-0.411-24.166-11.402-24.166-24.894V139.009c0-0.012,0-0.012,0-0.023 c0.012-56.317,28.617-107.609,76.515-137.224c5.519-3.417,12.752-1.703,16.17,3.805c1.48,2.395,1.996,5.108,1.656,7.703l0.094-0.047 v292.696C511.175,305.941,511.175,305.953,511.175,305.976z M487.69,476.702V317.719h-23.297v158.983 c0,6.423,5.225,11.649,11.649,11.649S487.69,483.125,487.69,476.702z M487.69,294.234V34.875 c-30.049,25.951-47.464,63.516-47.464,104.133c0,0.012,0,0.012,0,0.023V292.79c0,0.798,0.646,1.444,1.444,1.444H487.69 L487.69,294.234z"></path> <g> <path style="fill:#94E7EF;" d="M487.69,317.719v158.983c0,6.423-5.225,11.649-11.649,11.649s-11.649-5.225-11.649-11.649V317.719 H487.69z"></path> <path style="fill:#94E7EF;" d="M487.69,34.875v259.358H441.67c-0.798,0-1.444-0.646-1.444-1.444V139.032c0-0.012,0-0.012,0-0.023 C440.226,98.391,457.64,60.827,487.69,34.875z"></path> </g> <path style="fill:#1E0478;" d="M344.536,11.743v169.986c0,19.14-15.571,34.711-34.711,34.711h-2.09l16.475,247.663 c0.822,12.341-3.558,24.612-12.013,33.666C303.73,506.81,291.776,512,279.388,512s-24.342-5.19-32.809-14.244 c-8.455-9.042-12.835-21.313-12.013-33.666l16.475-247.651h-2.09c-19.14,0-34.711-15.571-34.711-34.711V11.743 C214.24,5.261,219.501,0,225.983,0c6.482,0,11.743,5.261,11.743,11.743v133.396h29.92V11.743C267.645,5.261,272.906,0,279.388,0 c6.482,0,11.743,5.261,11.743,11.743v133.396h29.92V11.743C321.051,5.261,326.311,0,332.793,0 C339.275,0,344.536,5.261,344.536,11.743z M321.051,181.728v-13.105h-83.325v13.105c0,6.188,5.038,11.226,11.226,11.226h14.209 c0.012,0,0.023,0,0.047,0h46.618C316.013,192.954,321.051,187.917,321.051,181.728z M295.041,481.716 c4.098-4.38,6.13-10.075,5.73-16.052l-16.581-249.225h-9.605l-16.581,249.213c-0.399,5.989,1.632,11.684,5.73,16.064 c4.098,4.392,9.652,6.799,15.653,6.799S290.943,486.108,295.041,481.716z"></path> <g> <path style="fill:#94E7EF;" d="M321.051,168.623v13.105c0,6.188-5.038,11.226-11.226,11.226h-46.618c-0.023,0-0.035,0-0.047,0 h-14.209c-6.188,0-11.226-5.038-11.226-11.226v-13.105H321.051z"></path> <path style="fill:#94E7EF;" d="M300.771,465.664c0.399,5.977-1.632,11.672-5.73,16.052c-4.098,4.392-9.652,6.799-15.653,6.799 s-11.555-2.407-15.653-6.799c-4.098-4.38-6.13-10.075-5.73-16.064l16.581-249.213h9.605L300.771,465.664z"></path> </g> <path style="fill:#1E0478;" d="M141.248,31.987c14.713,19.622,22.816,45.514,22.816,72.933c0,27.407-8.102,53.311-22.816,72.921 c-8.607,11.473-18.894,20.068-30.19,25.446l17.273,259.664c0.845,12.659-3.652,25.223-12.306,34.488 C107.359,506.692,95.123,512,82.441,512s-24.929-5.308-33.596-14.573c-8.654-9.265-13.14-21.829-12.306-34.476l17.273-259.664 c-11.296-5.378-21.583-13.974-30.178-25.446C8.921,158.231,0.819,132.327,0.819,104.92c0-27.419,8.102-53.311,22.816-72.933 C39.099,11.367,59.99,0,82.441,0S125.771,11.367,141.248,31.987z M140.579,104.92c0-44.904-26.08-81.435-58.138-81.435 S24.304,60.016,24.304,104.92c0,38.504,19.187,70.831,44.868,79.262c0.341,0.094,0.669,0.2,0.998,0.329 c3.957,1.186,8.055,1.832,12.271,1.832C114.499,186.343,140.579,149.812,140.579,104.92z M98.869,481.387 c4.31-4.603,6.447-10.592,6.024-16.886L87.937,209.57c-1.82,0.153-3.652,0.258-5.496,0.258c-1.855,0-3.687-0.106-5.507-0.258 L59.978,464.501c-0.423,6.294,1.714,12.283,6.024,16.886c4.298,4.591,10.146,7.128,16.44,7.128S94.571,485.978,98.869,481.387z"></path> <g> <path style="fill:#94E7EF;" d="M82.441,23.485c32.057,0,58.138,36.531,58.138,81.435c0,44.892-26.08,81.423-58.138,81.423 c-4.216,0-8.314-0.646-12.271-1.832c-0.329-0.129-0.658-0.235-0.998-0.329c-25.681-8.431-44.868-40.758-44.868-79.262 C24.304,60.016,50.384,23.485,82.441,23.485z"></path> <path style="fill:#94E7EF;" d="M104.893,464.501c0.423,6.294-1.714,12.283-6.024,16.886c-4.298,4.591-10.134,7.128-16.428,7.128 c-6.294,0-12.142-2.536-16.44-7.128c-4.31-4.603-6.447-10.592-6.024-16.886L76.934,209.57c1.82,0.153,3.652,0.258,5.507,0.258 c1.844,0,3.675-0.106,5.496-0.258L104.893,464.501z"></path> </g> </g></svg>